<?xml version="1.0" encoding="UTF-8" standalone="no"?>
<!DOCTYPE svg PUBLIC "-//W3C//DTD SVG 1.1//EN" "http://www.w3.org/Graphics/SVG/1.1/DTD/svg11.dtd">
<svg width="100%" height="100%" viewBox="0 0 86 86" version="1.1" xmlns="http://www.w3.org/2000/svg" xmlns:xlink="http://www.w3.org/1999/xlink" xml:space="preserve" xmlns:serif="http://www.serif.com/" style="fill-rule:evenodd;clip-rule:evenodd;stroke-linejoin:round;stroke-miterlimit:2;">
    <path d="M43,0.3C19.419,0.3 0.3,19.417 0.3,43L0.3,82.285C0.3,84.164 1.838,85.701 3.716,85.701L82.284,85.701C84.163,85.701 85.7,84.164 85.7,82.285L85.7,43C85.7,19.417 66.583,0.3 43,0.3Z" style="fill:url(#_Linear1);fill-rule:nonzero;"/>
    <g transform="matrix(0.132931,0,0,0.132931,10.6446,10.6446)">
        <g>
            <g>
                <path d="M80,370.406C78.1,367.106 73.8,366.006 70.5,367.906L53.1,378.006L53.1,357.906C53.1,354.106 50,351.006 46.2,351.006C42.4,351.006 39.3,354.106 39.3,357.906L39.3,378.006L21.9,367.906C18.6,366.006 14.3,367.106 12.4,370.406C10.5,373.706 11.6,378.006 14.9,379.906L32.4,390.106L14.9,400.306C11.6,402.206 10.5,406.506 12.4,409.806C14.3,413.106 18.6,414.206 21.9,412.306L39.3,402.206L39.3,422.306C39.3,426.106 42.4,429.206 46.2,429.206C50,429.206 53.1,426.106 53.1,422.306L53.1,402.206L70.5,412.306C73.8,414.206 78.1,413.106 80,409.806C81.9,406.506 80.8,402.206 77.5,400.306L60,390.106L77.5,379.906C80.8,377.906 82,373.706 80,370.406Z" style="fill:white;fill-rule:nonzero;"/>
                <path d="M143.9,409.706C145.8,413.006 150.1,414.106 153.4,412.206L170.8,402.106L170.8,422.206C170.8,426.006 173.9,429.106 177.7,429.106C181.5,429.106 184.6,426.006 184.6,422.206L184.6,402.106L202,412.206C205.3,414.106 209.6,413.006 211.5,409.706C213.4,406.406 212.3,402.106 209,400.206L191.5,390.006L209,379.806C212.3,377.906 213.4,373.606 211.5,370.306C209.6,367.006 205.3,365.906 202,367.806L184.6,377.906L184.6,357.806C184.6,354.006 181.5,350.906 177.7,350.906C173.9,350.906 170.8,354.006 170.8,357.806L170.8,377.906L153.4,367.906C150.1,366.006 145.8,367.106 143.9,370.406C142,373.706 143.1,378.006 146.4,379.906L163.9,390.106L146.4,400.206C143.1,402.106 142,406.406 143.9,409.706Z" style="fill:white;fill-rule:nonzero;"/>
                <path d="M275.3,409.706C277.2,413.006 281.5,414.106 284.8,412.206L302.2,402.106L302.2,422.206C302.2,426.006 305.3,429.106 309.1,429.106C312.9,429.106 316,426.006 316,422.206L316,402.106L333.4,412.206C336.7,414.106 341,413.006 342.9,409.706C344.8,406.406 343.7,402.106 340.4,400.206L322.9,390.006L340.4,379.806C343.7,377.906 344.8,373.606 342.9,370.306C341,367.006 336.7,365.906 333.4,367.806L316,377.906L316,357.806C316,354.006 312.9,350.906 309.1,350.906C305.3,350.906 302.2,354.006 302.2,357.806L302.2,377.906L284.8,367.806C281.5,365.906 277.2,367.006 275.3,370.306C273.4,373.606 274.5,377.906 277.8,379.806L295.3,390.006L277.8,400.206C274.5,402.106 273.4,406.406 275.3,409.706Z" style="fill:white;fill-rule:nonzero;"/>
                <path d="M406.8,409.706C408.7,413.006 413,414.106 416.3,412.206L433.7,402.106L433.7,422.206C433.7,426.006 436.8,429.106 440.6,429.106C444.4,429.106 447.5,426.006 447.5,422.206L447.5,402.106L464.9,412.206C468.2,414.106 472.5,413.006 474.4,409.706C476.3,406.406 475.2,402.106 471.9,400.206L454.4,390.006L471.9,379.806C475.2,377.906 476.3,373.606 474.4,370.306C472.5,367.006 468.2,365.906 464.9,367.806L447.5,377.906L447.5,357.806C447.5,354.006 444.4,350.906 440.6,350.906C436.8,350.906 433.7,354.006 433.7,357.806L433.7,377.906L416.3,367.806C413,365.906 408.7,367.006 406.8,370.306C404.9,373.606 406,377.906 409.3,379.806L426.8,390.006L409.3,400.206C406,402.106 404.8,406.406 406.8,409.706Z" style="fill:white;fill-rule:nonzero;"/>
            </g>
            <g opacity="0.8">
                <path d="M131.5,462.106L131.5,474.306C131.5,477.206 133.9,479.606 136.8,479.606L218.7,479.606C221.6,479.606 224,477.206 224,474.306L224,462.106C224,459.206 221.6,456.806 218.7,456.806L136.8,456.806C133.8,456.806 131.5,459.206 131.5,462.106Z" style="fill:white;fill-rule:nonzero;"/>
                <path d="M262.9,462.106L262.9,474.306C262.9,477.206 265.3,479.606 268.2,479.606L350.1,479.606C353,479.606 355.4,477.206 355.4,474.306L355.4,462.106C355.4,459.206 353,456.806 350.1,456.806L268.2,456.806C265.3,456.806 262.9,459.206 262.9,462.106Z" style="fill:white;fill-rule:nonzero;"/>
                <path d="M481.5,456.806L399.6,456.806C396.7,456.806 394.3,459.206 394.3,462.106L394.3,474.306C394.3,477.206 396.7,479.606 399.6,479.606L481.5,479.606C484.4,479.606 486.8,477.206 486.8,474.306L486.8,462.106C486.8,459.206 484.4,456.806 481.5,456.806Z" style="fill:white;fill-rule:nonzero;"/>
                <path d="M5.3,479.606L87.2,479.606C90.1,479.606 92.5,477.206 92.5,474.306L92.5,462.106C92.5,459.206 90.1,456.806 87.2,456.806L5.3,456.806C2.4,456.806 0,459.206 0,462.106L0,474.306C0,477.206 2.4,479.606 5.3,479.606Z" style="fill:white;fill-rule:nonzero;"/>
            </g>
            <g transform="matrix(1.04265,0,0,1.04265,-10.4578,-6.30795)">
                <path d="M331.1,121.106L330.5,121.106L330.5,93.906C330.5,46.606 291.8,6.406 244.6,7.206C198.7,8.006 161.5,45.606 161.5,91.706L161.5,94.306C161.5,98.206 164.7,101.406 168.6,101.406L191.3,101.406C195.2,101.406 198.4,98.206 198.4,94.306L198.4,93.506C198.4,68.106 217.5,45.806 242.9,44.206C270.5,42.506 293.5,64.406 293.5,91.606L293.5,121.006L223.5,121.006L223.5,121.106L158.8,121.106C146.8,121.506 137.1,131.206 137.1,143.306L137.1,266.306C137.1,278.606 147.1,288.606 159.4,288.606L331,288.606C343.3,288.606 353.3,278.606 353.3,266.306L353.3,143.406C353.4,131.106 343.4,121.106 331.1,121.106ZM258.5,210.406C256.8,211.606 256.3,212.906 256.3,214.906C256.4,223.906 256.4,232.906 256.3,242.006C256.5,245.806 254.6,249.406 251.2,251.106C243.3,255.106 235.4,249.506 235.4,242.006L235.4,214.806C235.4,213.006 235,211.706 233.4,210.506C225.2,204.506 222.5,194.206 226.6,185.106C230.6,176.306 240.3,171.106 249.4,173.006C259.6,175.006 266.7,183.306 266.8,193.406C267.1,200.506 264.2,206.306 258.5,210.406Z" style="fill:white;fill-opacity:0.81;fill-rule:nonzero;"/>
            </g>
        </g>
    </g>
    <defs>
        <linearGradient id="_Linear1" x1="0" y1="0" x2="1" y2="0" gradientUnits="userSpaceOnUse" gradientTransform="matrix(4.9137e-15,80.2467,-80.2467,4.9137e-15,43.1753,3.20199)"><stop offset="0" style="stop-color:rgb(81,234,238);stop-opacity:1"/><stop offset="1" style="stop-color:rgb(77,185,231);stop-opacity:1"/></linearGradient>
    </defs>
</svg>
